<svg width="1000" height="1000" viewBox="0 0 1000 1000" fill="none" xmlns="http://www.w3.org/2000/svg">
<path d="M700 0C865.685 0 1000 134.315 1000 300V700C1000 865.685 865.685 1000 700 1000H300C134.315 1000 0 865.685 0 700V300C0 134.315 134.315 0 300 0H700ZM300 70C172.975 70 70 172.975 70 300V700C70 827.025 172.975 930 300 930H700C745.627 930 788.151 916.713 823.914 893.799C785.099 885.021 752.552 865.546 726.289 849.796C695.548 831.359 674.792 819.154 653.871 816.167C653.369 816.095 652.869 816.012 652.371 815.919C640.16 813.63 625.718 813.611 607.642 815.147C588.626 816.764 570.847 819.489 547.274 822.075C502.836 826.95 449.657 829.715 392.157 810.626C229.677 758.082 150.821 591.05 197.212 424.117C197.259 423.948 197.308 423.778 197.357 423.609C220.79 343.973 269.402 283.014 335.198 245.348C400.637 207.885 480.977 194.604 566.898 205.904C567.668 206.006 568.435 206.132 569.196 206.284C686.816 229.798 769.849 315.279 785.457 426.332L785.813 428.96L785.915 429.823C790.792 476.13 782.089 516.788 772.939 552.292C763.407 589.284 754.327 618.14 752.487 649.395C752.471 649.679 752.45 649.963 752.427 650.246C749.7 682.957 763.51 706.261 802.027 741.243L803.881 742.918L804.01 743.036C844.246 779.599 888.068 798.143 900.306 802.698L901.391 803.096L901.903 803.284C902.928 803.671 903.928 804.103 904.902 804.579C920.948 773.204 930 737.659 930 700V300C930 172.975 827.025 70 700 70H300ZM556.622 275.16C483.613 265.769 419.638 277.667 369.977 306.098C320.479 334.434 283.13 380.313 264.587 443.11C227.373 577.461 290.499 703.355 412.26 743.554L413.696 744.023L413.99 744.119C457.057 758.468 498.158 757.043 539.641 752.492C559.066 750.361 582.188 747.059 601.714 745.399C621.937 743.681 643.405 743.131 664.51 746.979C690.043 750.772 713.724 761.79 734.686 773.503C701.748 739.352 678.171 700.137 682.633 644.881C685.044 604.998 696.886 566.911 705.154 534.824C713.797 501.285 719.761 470.777 716.343 437.579C705.719 357.57 647.007 293.667 556.622 275.16ZM552.5 561C564.926 561 575 571.074 575 583.5C575 595.926 564.926 606 552.5 606H432.5C420.074 606 410 595.926 410 583.5C410 571.074 420.074 561 432.5 561H552.5ZM554 430C573.33 430 589 445.67 589 465C589 484.33 573.33 500 554 500C534.67 500 519 484.33 519 465C519 445.67 534.67 430 554 430ZM387 395C406.33 395 422 410.67 422 430C422 449.33 406.33 465 387 465C367.67 465 352 449.33 352 430C352 410.67 367.67 395 387 395Z" fill="#C4956A"/>
</svg>
